# xmcd CD database file
#
# Track frame offsets:
#	150
#	17112
#	36100
#	55172
#	75600
#	92905
#	113752
#	130977
#	153595
#	169077
#	195962
#
# Disc length: 2669 seconds
#
# Revision: 5
# Processed by: cddbd v1.5.1PL0 Copyright (c) Steve Scherf et al.
# Submitted via: CDex 1.51
#
DISCID=850a6b0b
DTITLE=Everything but the Girl - Worldwide
DYEAR=1900
DGENRE=
TTITLE0=Old Friends
TTITLE1=Understanding
TTITLE2=You Lift Me Up
TTITLE3=Talk to Me Like the Sea
TTITLE4=British Summertime
TTITLE5=Twin Cities
TTITLE6=Frozen River
TTITLE7=One Place
TTITLE8=Politics Aside
TTITLE9=Boxing and Pop Music
TTITLE10=Feel Alright
EXTD=
EXTT0=
EXTT1=
EXTT2=
EXTT3=
EXTT4=
EXTT5=
EXTT6=
EXTT7=
EXTT8=
EXTT9=
EXTT10=
PLAYORDER=
